G04 #@! TF.GenerationSoftware,KiCad,Pcbnew,5.1.4+dfsg1-1*
G04 #@! TF.CreationDate,2020-03-18T18:25:11-04:00*
G04 #@! TF.ProjectId,upipower-injector,75706970-6f77-4657-922d-696e6a656374,1.0*
G04 #@! TF.SameCoordinates,Original*
G04 #@! TF.FileFunction,Copper,L2,Bot*
G04 #@! TF.FilePolarity,Positive*
%FSLAX46Y46*%
G04 Gerber Fmt 4.6, Leading zero omitted, Abs format (unit mm)*
G04 Created by KiCad (PCBNEW 5.1.4+dfsg1-1) date 2020-03-18 18:25:11*
%MOMM*%
%LPD*%
G04 APERTURE LIST*
%ADD10C,5.999480*%
%ADD11R,5.999480X5.999480*%
%ADD12R,1.700000X1.700000*%
%ADD13O,1.700000X1.700000*%
%ADD14C,0.254000*%
G04 APERTURE END LIST*
D10*
X122032000Y-101948000D03*
D11*
X122032000Y-109568000D03*
D12*
X125902000Y-95838000D03*
D13*
X125902000Y-93298000D03*
X128442000Y-95838000D03*
X128442000Y-93298000D03*
X130982000Y-95838000D03*
X130982000Y-93298000D03*
X133522000Y-95838000D03*
X133522000Y-93298000D03*
X136062000Y-95838000D03*
X136062000Y-93298000D03*
X138602000Y-95838000D03*
X138602000Y-93298000D03*
X141142000Y-95838000D03*
X141142000Y-93298000D03*
X143682000Y-95838000D03*
X143682000Y-93298000D03*
X146222000Y-95838000D03*
X146222000Y-93298000D03*
X148762000Y-95838000D03*
X148762000Y-93298000D03*
X151302000Y-95838000D03*
X151302000Y-93298000D03*
X153842000Y-95838000D03*
X153842000Y-93298000D03*
X156382000Y-95838000D03*
X156382000Y-93298000D03*
X158922000Y-95838000D03*
X158922000Y-93298000D03*
X161462000Y-95838000D03*
X161462000Y-93298000D03*
X164002000Y-95838000D03*
X164002000Y-93298000D03*
X166542000Y-95838000D03*
X166542000Y-93298000D03*
X169082000Y-95838000D03*
X169082000Y-93298000D03*
X171622000Y-95838000D03*
X171622000Y-93298000D03*
X174162000Y-95838000D03*
X174162000Y-93298000D03*
D14*
G36*
X176974907Y-92061425D02*
G01*
X176525425Y-92510907D01*
X176172270Y-93039442D01*
X175929012Y-93626719D01*
X175805000Y-94250168D01*
X175805000Y-94885832D01*
X175929012Y-95509281D01*
X176172270Y-96096558D01*
X176525425Y-96625093D01*
X176974907Y-97074575D01*
X177503442Y-97427730D01*
X178090719Y-97670988D01*
X178714168Y-97795000D01*
X179349832Y-97795000D01*
X179973281Y-97670988D01*
X180560558Y-97427730D01*
X181089093Y-97074575D01*
X181538575Y-96625093D01*
X181822000Y-96200916D01*
X181822000Y-98441000D01*
X127032000Y-98441000D01*
X127007224Y-98443440D01*
X126983399Y-98450667D01*
X126961443Y-98462403D01*
X126942197Y-98478197D01*
X126926403Y-98497443D01*
X126914667Y-98519399D01*
X126907440Y-98543224D01*
X126905000Y-98568000D01*
X126905000Y-105441000D01*
X123037743Y-105441000D01*
X123414518Y-105328552D01*
X124047466Y-104993879D01*
X124074740Y-104975657D01*
X124410897Y-104506502D01*
X122032000Y-102127605D01*
X119653103Y-104506502D01*
X119989260Y-104975657D01*
X120619177Y-105316000D01*
X121024682Y-105441000D01*
X118242000Y-105441000D01*
X118242000Y-101931599D01*
X118379710Y-101931599D01*
X118446689Y-102644441D01*
X118651448Y-103330518D01*
X118986121Y-103963466D01*
X119004343Y-103990740D01*
X119473498Y-104326897D01*
X121852395Y-101948000D01*
X122211605Y-101948000D01*
X124590502Y-104326897D01*
X125059657Y-103990740D01*
X125400000Y-103360823D01*
X125610913Y-102676612D01*
X125684290Y-101964401D01*
X125617311Y-101251559D01*
X125412552Y-100565482D01*
X125077879Y-99932534D01*
X125059657Y-99905260D01*
X124590502Y-99569103D01*
X122211605Y-101948000D01*
X121852395Y-101948000D01*
X119473498Y-99569103D01*
X119004343Y-99905260D01*
X118664000Y-100535177D01*
X118453087Y-101219388D01*
X118379710Y-101931599D01*
X118242000Y-101931599D01*
X118242000Y-99389498D01*
X119653103Y-99389498D01*
X122032000Y-101768395D01*
X124410897Y-99389498D01*
X124074740Y-98920343D01*
X123444823Y-98580000D01*
X122760612Y-98369087D01*
X122048401Y-98295710D01*
X121335559Y-98362689D01*
X120649482Y-98567448D01*
X120016534Y-98902121D01*
X119989260Y-98920343D01*
X119653103Y-99389498D01*
X118242000Y-99389498D01*
X118242000Y-96200917D01*
X118525425Y-96625093D01*
X118974907Y-97074575D01*
X119503442Y-97427730D01*
X120090719Y-97670988D01*
X120714168Y-97795000D01*
X121349832Y-97795000D01*
X121973281Y-97670988D01*
X122560558Y-97427730D01*
X123089093Y-97074575D01*
X123538575Y-96625093D01*
X123891730Y-96096558D01*
X124134988Y-95509281D01*
X124259000Y-94885832D01*
X124259000Y-94250168D01*
X124134988Y-93626719D01*
X123998829Y-93298000D01*
X124409815Y-93298000D01*
X124438487Y-93589111D01*
X124523401Y-93869034D01*
X124661294Y-94127014D01*
X124846866Y-94353134D01*
X124876687Y-94377607D01*
X124807820Y-94398498D01*
X124697506Y-94457463D01*
X124600815Y-94536815D01*
X124521463Y-94633506D01*
X124462498Y-94743820D01*
X124426188Y-94863518D01*
X124413928Y-94988000D01*
X124413928Y-96688000D01*
X124426188Y-96812482D01*
X124462498Y-96932180D01*
X124521463Y-97042494D01*
X124600815Y-97139185D01*
X124697506Y-97218537D01*
X124807820Y-97277502D01*
X124927518Y-97313812D01*
X125052000Y-97326072D01*
X126752000Y-97326072D01*
X126876482Y-97313812D01*
X126996180Y-97277502D01*
X127106494Y-97218537D01*
X127203185Y-97139185D01*
X127282537Y-97042494D01*
X127341502Y-96932180D01*
X127362393Y-96863313D01*
X127386866Y-96893134D01*
X127612986Y-97078706D01*
X127870966Y-97216599D01*
X128150889Y-97301513D01*
X128369050Y-97323000D01*
X128514950Y-97323000D01*
X128733111Y-97301513D01*
X129013034Y-97216599D01*
X129271014Y-97078706D01*
X129497134Y-96893134D01*
X129682706Y-96667014D01*
X129712000Y-96612209D01*
X129741294Y-96667014D01*
X129926866Y-96893134D01*
X130152986Y-97078706D01*
X130410966Y-97216599D01*
X130690889Y-97301513D01*
X130909050Y-97323000D01*
X131054950Y-97323000D01*
X131273111Y-97301513D01*
X131553034Y-97216599D01*
X131811014Y-97078706D01*
X132037134Y-96893134D01*
X132222706Y-96667014D01*
X132252000Y-96612209D01*
X132281294Y-96667014D01*
X132466866Y-96893134D01*
X132692986Y-97078706D01*
X132950966Y-97216599D01*
X133230889Y-97301513D01*
X133449050Y-97323000D01*
X133594950Y-97323000D01*
X133813111Y-97301513D01*
X134093034Y-97216599D01*
X134351014Y-97078706D01*
X134577134Y-96893134D01*
X134762706Y-96667014D01*
X134797201Y-96602477D01*
X134866822Y-96719355D01*
X135061731Y-96935588D01*
X135295080Y-97109641D01*
X135557901Y-97234825D01*
X135705110Y-97279476D01*
X135935000Y-97158155D01*
X135935000Y-95965000D01*
X135915000Y-95965000D01*
X135915000Y-95711000D01*
X135935000Y-95711000D01*
X135935000Y-95691000D01*
X136189000Y-95691000D01*
X136189000Y-95711000D01*
X136209000Y-95711000D01*
X136209000Y-95965000D01*
X136189000Y-95965000D01*
X136189000Y-97158155D01*
X136418890Y-97279476D01*
X136566099Y-97234825D01*
X136828920Y-97109641D01*
X137062269Y-96935588D01*
X137257178Y-96719355D01*
X137326799Y-96602477D01*
X137361294Y-96667014D01*
X137546866Y-96893134D01*
X137772986Y-97078706D01*
X138030966Y-97216599D01*
X138310889Y-97301513D01*
X138529050Y-97323000D01*
X138674950Y-97323000D01*
X138893111Y-97301513D01*
X139173034Y-97216599D01*
X139431014Y-97078706D01*
X139657134Y-96893134D01*
X139842706Y-96667014D01*
X139872000Y-96612209D01*
X139901294Y-96667014D01*
X140086866Y-96893134D01*
X140312986Y-97078706D01*
X140570966Y-97216599D01*
X140850889Y-97301513D01*
X141069050Y-97323000D01*
X141214950Y-97323000D01*
X141433111Y-97301513D01*
X141713034Y-97216599D01*
X141971014Y-97078706D01*
X142197134Y-96893134D01*
X142382706Y-96667014D01*
X142412000Y-96612209D01*
X142441294Y-96667014D01*
X142626866Y-96893134D01*
X142852986Y-97078706D01*
X143110966Y-97216599D01*
X143390889Y-97301513D01*
X143609050Y-97323000D01*
X143754950Y-97323000D01*
X143973111Y-97301513D01*
X144253034Y-97216599D01*
X144511014Y-97078706D01*
X144737134Y-96893134D01*
X144922706Y-96667014D01*
X144952000Y-96612209D01*
X144981294Y-96667014D01*
X145166866Y-96893134D01*
X145392986Y-97078706D01*
X145650966Y-97216599D01*
X145930889Y-97301513D01*
X146149050Y-97323000D01*
X146294950Y-97323000D01*
X146513111Y-97301513D01*
X146793034Y-97216599D01*
X147051014Y-97078706D01*
X147277134Y-96893134D01*
X147462706Y-96667014D01*
X147492000Y-96612209D01*
X147521294Y-96667014D01*
X147706866Y-96893134D01*
X147932986Y-97078706D01*
X148190966Y-97216599D01*
X148470889Y-97301513D01*
X148689050Y-97323000D01*
X148834950Y-97323000D01*
X149053111Y-97301513D01*
X149333034Y-97216599D01*
X149591014Y-97078706D01*
X149817134Y-96893134D01*
X150002706Y-96667014D01*
X150032000Y-96612209D01*
X150061294Y-96667014D01*
X150246866Y-96893134D01*
X150472986Y-97078706D01*
X150730966Y-97216599D01*
X151010889Y-97301513D01*
X151229050Y-97323000D01*
X151374950Y-97323000D01*
X151593111Y-97301513D01*
X151873034Y-97216599D01*
X152131014Y-97078706D01*
X152357134Y-96893134D01*
X152542706Y-96667014D01*
X152572000Y-96612209D01*
X152601294Y-96667014D01*
X152786866Y-96893134D01*
X153012986Y-97078706D01*
X153270966Y-97216599D01*
X153550889Y-97301513D01*
X153769050Y-97323000D01*
X153914950Y-97323000D01*
X154133111Y-97301513D01*
X154413034Y-97216599D01*
X154671014Y-97078706D01*
X154897134Y-96893134D01*
X155082706Y-96667014D01*
X155117201Y-96602477D01*
X155186822Y-96719355D01*
X155381731Y-96935588D01*
X155615080Y-97109641D01*
X155877901Y-97234825D01*
X156025110Y-97279476D01*
X156255000Y-97158155D01*
X156255000Y-95965000D01*
X156235000Y-95965000D01*
X156235000Y-95711000D01*
X156255000Y-95711000D01*
X156255000Y-95691000D01*
X156509000Y-95691000D01*
X156509000Y-95711000D01*
X156529000Y-95711000D01*
X156529000Y-95965000D01*
X156509000Y-95965000D01*
X156509000Y-97158155D01*
X156738890Y-97279476D01*
X156886099Y-97234825D01*
X157148920Y-97109641D01*
X157382269Y-96935588D01*
X157577178Y-96719355D01*
X157646799Y-96602477D01*
X157681294Y-96667014D01*
X157866866Y-96893134D01*
X158092986Y-97078706D01*
X158350966Y-97216599D01*
X158630889Y-97301513D01*
X158849050Y-97323000D01*
X158994950Y-97323000D01*
X159213111Y-97301513D01*
X159493034Y-97216599D01*
X159751014Y-97078706D01*
X159977134Y-96893134D01*
X160162706Y-96667014D01*
X160192000Y-96612209D01*
X160221294Y-96667014D01*
X160406866Y-96893134D01*
X160632986Y-97078706D01*
X160890966Y-97216599D01*
X161170889Y-97301513D01*
X161389050Y-97323000D01*
X161534950Y-97323000D01*
X161753111Y-97301513D01*
X162033034Y-97216599D01*
X162291014Y-97078706D01*
X162517134Y-96893134D01*
X162702706Y-96667014D01*
X162732000Y-96612209D01*
X162761294Y-96667014D01*
X162946866Y-96893134D01*
X163172986Y-97078706D01*
X163430966Y-97216599D01*
X163710889Y-97301513D01*
X163929050Y-97323000D01*
X164074950Y-97323000D01*
X164293111Y-97301513D01*
X164573034Y-97216599D01*
X164831014Y-97078706D01*
X165057134Y-96893134D01*
X165242706Y-96667014D01*
X165272000Y-96612209D01*
X165301294Y-96667014D01*
X165486866Y-96893134D01*
X165712986Y-97078706D01*
X165970966Y-97216599D01*
X166250889Y-97301513D01*
X166469050Y-97323000D01*
X166614950Y-97323000D01*
X166833111Y-97301513D01*
X167113034Y-97216599D01*
X167371014Y-97078706D01*
X167597134Y-96893134D01*
X167782706Y-96667014D01*
X167812000Y-96612209D01*
X167841294Y-96667014D01*
X168026866Y-96893134D01*
X168252986Y-97078706D01*
X168510966Y-97216599D01*
X168790889Y-97301513D01*
X169009050Y-97323000D01*
X169154950Y-97323000D01*
X169373111Y-97301513D01*
X169653034Y-97216599D01*
X169911014Y-97078706D01*
X170137134Y-96893134D01*
X170322706Y-96667014D01*
X170352000Y-96612209D01*
X170381294Y-96667014D01*
X170566866Y-96893134D01*
X170792986Y-97078706D01*
X171050966Y-97216599D01*
X171330889Y-97301513D01*
X171549050Y-97323000D01*
X171694950Y-97323000D01*
X171913111Y-97301513D01*
X172193034Y-97216599D01*
X172451014Y-97078706D01*
X172677134Y-96893134D01*
X172862706Y-96667014D01*
X172897201Y-96602477D01*
X172966822Y-96719355D01*
X173161731Y-96935588D01*
X173395080Y-97109641D01*
X173657901Y-97234825D01*
X173805110Y-97279476D01*
X174035000Y-97158155D01*
X174035000Y-95965000D01*
X174289000Y-95965000D01*
X174289000Y-97158155D01*
X174518890Y-97279476D01*
X174666099Y-97234825D01*
X174928920Y-97109641D01*
X175162269Y-96935588D01*
X175357178Y-96719355D01*
X175506157Y-96469252D01*
X175603481Y-96194891D01*
X175482814Y-95965000D01*
X174289000Y-95965000D01*
X174035000Y-95965000D01*
X174015000Y-95965000D01*
X174015000Y-95711000D01*
X174035000Y-95711000D01*
X174035000Y-95691000D01*
X174289000Y-95691000D01*
X174289000Y-95711000D01*
X175482814Y-95711000D01*
X175603481Y-95481109D01*
X175506157Y-95206748D01*
X175357178Y-94956645D01*
X175162269Y-94740412D01*
X174933244Y-94569584D01*
X174991014Y-94538706D01*
X175217134Y-94353134D01*
X175402706Y-94127014D01*
X175540599Y-93869034D01*
X175625513Y-93589111D01*
X175654185Y-93298000D01*
X175625513Y-93006889D01*
X175540599Y-92726966D01*
X175402706Y-92468986D01*
X175217134Y-92242866D01*
X174991014Y-92057294D01*
X174733034Y-91919401D01*
X174453111Y-91834487D01*
X174234950Y-91813000D01*
X174089050Y-91813000D01*
X173870889Y-91834487D01*
X173590966Y-91919401D01*
X173332986Y-92057294D01*
X173106866Y-92242866D01*
X172921294Y-92468986D01*
X172892000Y-92523791D01*
X172862706Y-92468986D01*
X172677134Y-92242866D01*
X172451014Y-92057294D01*
X172193034Y-91919401D01*
X171913111Y-91834487D01*
X171694950Y-91813000D01*
X171549050Y-91813000D01*
X171330889Y-91834487D01*
X171050966Y-91919401D01*
X170792986Y-92057294D01*
X170566866Y-92242866D01*
X170381294Y-92468986D01*
X170352000Y-92523791D01*
X170322706Y-92468986D01*
X170137134Y-92242866D01*
X169911014Y-92057294D01*
X169653034Y-91919401D01*
X169373111Y-91834487D01*
X169154950Y-91813000D01*
X169009050Y-91813000D01*
X168790889Y-91834487D01*
X168510966Y-91919401D01*
X168252986Y-92057294D01*
X168026866Y-92242866D01*
X167841294Y-92468986D01*
X167806799Y-92533523D01*
X167737178Y-92416645D01*
X167542269Y-92200412D01*
X167308920Y-92026359D01*
X167046099Y-91901175D01*
X166898890Y-91856524D01*
X166669000Y-91977845D01*
X166669000Y-93171000D01*
X166689000Y-93171000D01*
X166689000Y-93425000D01*
X166669000Y-93425000D01*
X166669000Y-93445000D01*
X166415000Y-93445000D01*
X166415000Y-93425000D01*
X166395000Y-93425000D01*
X166395000Y-93171000D01*
X166415000Y-93171000D01*
X166415000Y-91977845D01*
X166185110Y-91856524D01*
X166037901Y-91901175D01*
X165775080Y-92026359D01*
X165541731Y-92200412D01*
X165346822Y-92416645D01*
X165277201Y-92533523D01*
X165242706Y-92468986D01*
X165057134Y-92242866D01*
X164831014Y-92057294D01*
X164573034Y-91919401D01*
X164293111Y-91834487D01*
X164074950Y-91813000D01*
X163929050Y-91813000D01*
X163710889Y-91834487D01*
X163430966Y-91919401D01*
X163172986Y-92057294D01*
X162946866Y-92242866D01*
X162761294Y-92468986D01*
X162726799Y-92533523D01*
X162657178Y-92416645D01*
X162462269Y-92200412D01*
X162228920Y-92026359D01*
X161966099Y-91901175D01*
X161818890Y-91856524D01*
X161589000Y-91977845D01*
X161589000Y-93171000D01*
X161609000Y-93171000D01*
X161609000Y-93425000D01*
X161589000Y-93425000D01*
X161589000Y-93445000D01*
X161335000Y-93445000D01*
X161335000Y-93425000D01*
X161315000Y-93425000D01*
X161315000Y-93171000D01*
X161335000Y-93171000D01*
X161335000Y-91977845D01*
X161105110Y-91856524D01*
X160957901Y-91901175D01*
X160695080Y-92026359D01*
X160461731Y-92200412D01*
X160266822Y-92416645D01*
X160197201Y-92533523D01*
X160162706Y-92468986D01*
X159977134Y-92242866D01*
X159751014Y-92057294D01*
X159493034Y-91919401D01*
X159213111Y-91834487D01*
X158994950Y-91813000D01*
X158849050Y-91813000D01*
X158630889Y-91834487D01*
X158350966Y-91919401D01*
X158092986Y-92057294D01*
X157866866Y-92242866D01*
X157681294Y-92468986D01*
X157652000Y-92523791D01*
X157622706Y-92468986D01*
X157437134Y-92242866D01*
X157211014Y-92057294D01*
X156953034Y-91919401D01*
X156673111Y-91834487D01*
X156454950Y-91813000D01*
X156309050Y-91813000D01*
X156090889Y-91834487D01*
X155810966Y-91919401D01*
X155552986Y-92057294D01*
X155326866Y-92242866D01*
X155141294Y-92468986D01*
X155112000Y-92523791D01*
X155082706Y-92468986D01*
X154897134Y-92242866D01*
X154671014Y-92057294D01*
X154413034Y-91919401D01*
X154133111Y-91834487D01*
X153914950Y-91813000D01*
X153769050Y-91813000D01*
X153550889Y-91834487D01*
X153270966Y-91919401D01*
X153012986Y-92057294D01*
X152786866Y-92242866D01*
X152601294Y-92468986D01*
X152572000Y-92523791D01*
X152542706Y-92468986D01*
X152357134Y-92242866D01*
X152131014Y-92057294D01*
X151873034Y-91919401D01*
X151593111Y-91834487D01*
X151374950Y-91813000D01*
X151229050Y-91813000D01*
X151010889Y-91834487D01*
X150730966Y-91919401D01*
X150472986Y-92057294D01*
X150246866Y-92242866D01*
X150061294Y-92468986D01*
X150026799Y-92533523D01*
X149957178Y-92416645D01*
X149762269Y-92200412D01*
X149528920Y-92026359D01*
X149266099Y-91901175D01*
X149118890Y-91856524D01*
X148889000Y-91977845D01*
X148889000Y-93171000D01*
X148909000Y-93171000D01*
X148909000Y-93425000D01*
X148889000Y-93425000D01*
X148889000Y-93445000D01*
X148635000Y-93445000D01*
X148635000Y-93425000D01*
X148615000Y-93425000D01*
X148615000Y-93171000D01*
X148635000Y-93171000D01*
X148635000Y-91977845D01*
X148405110Y-91856524D01*
X148257901Y-91901175D01*
X147995080Y-92026359D01*
X147761731Y-92200412D01*
X147566822Y-92416645D01*
X147497201Y-92533523D01*
X147462706Y-92468986D01*
X147277134Y-92242866D01*
X147051014Y-92057294D01*
X146793034Y-91919401D01*
X146513111Y-91834487D01*
X146294950Y-91813000D01*
X146149050Y-91813000D01*
X145930889Y-91834487D01*
X145650966Y-91919401D01*
X145392986Y-92057294D01*
X145166866Y-92242866D01*
X144981294Y-92468986D01*
X144952000Y-92523791D01*
X144922706Y-92468986D01*
X144737134Y-92242866D01*
X144511014Y-92057294D01*
X144253034Y-91919401D01*
X143973111Y-91834487D01*
X143754950Y-91813000D01*
X143609050Y-91813000D01*
X143390889Y-91834487D01*
X143110966Y-91919401D01*
X142852986Y-92057294D01*
X142626866Y-92242866D01*
X142441294Y-92468986D01*
X142406799Y-92533523D01*
X142337178Y-92416645D01*
X142142269Y-92200412D01*
X141908920Y-92026359D01*
X141646099Y-91901175D01*
X141498890Y-91856524D01*
X141269000Y-91977845D01*
X141269000Y-93171000D01*
X141289000Y-93171000D01*
X141289000Y-93425000D01*
X141269000Y-93425000D01*
X141269000Y-93445000D01*
X141015000Y-93445000D01*
X141015000Y-93425000D01*
X140995000Y-93425000D01*
X140995000Y-93171000D01*
X141015000Y-93171000D01*
X141015000Y-91977845D01*
X140785110Y-91856524D01*
X140637901Y-91901175D01*
X140375080Y-92026359D01*
X140141731Y-92200412D01*
X139946822Y-92416645D01*
X139877201Y-92533523D01*
X139842706Y-92468986D01*
X139657134Y-92242866D01*
X139431014Y-92057294D01*
X139173034Y-91919401D01*
X138893111Y-91834487D01*
X138674950Y-91813000D01*
X138529050Y-91813000D01*
X138310889Y-91834487D01*
X138030966Y-91919401D01*
X137772986Y-92057294D01*
X137546866Y-92242866D01*
X137361294Y-92468986D01*
X137332000Y-92523791D01*
X137302706Y-92468986D01*
X137117134Y-92242866D01*
X136891014Y-92057294D01*
X136633034Y-91919401D01*
X136353111Y-91834487D01*
X136134950Y-91813000D01*
X135989050Y-91813000D01*
X135770889Y-91834487D01*
X135490966Y-91919401D01*
X135232986Y-92057294D01*
X135006866Y-92242866D01*
X134821294Y-92468986D01*
X134792000Y-92523791D01*
X134762706Y-92468986D01*
X134577134Y-92242866D01*
X134351014Y-92057294D01*
X134093034Y-91919401D01*
X133813111Y-91834487D01*
X133594950Y-91813000D01*
X133449050Y-91813000D01*
X133230889Y-91834487D01*
X132950966Y-91919401D01*
X132692986Y-92057294D01*
X132466866Y-92242866D01*
X132281294Y-92468986D01*
X132246799Y-92533523D01*
X132177178Y-92416645D01*
X131982269Y-92200412D01*
X131748920Y-92026359D01*
X131486099Y-91901175D01*
X131338890Y-91856524D01*
X131109000Y-91977845D01*
X131109000Y-93171000D01*
X131129000Y-93171000D01*
X131129000Y-93425000D01*
X131109000Y-93425000D01*
X131109000Y-93445000D01*
X130855000Y-93445000D01*
X130855000Y-93425000D01*
X130835000Y-93425000D01*
X130835000Y-93171000D01*
X130855000Y-93171000D01*
X130855000Y-91977845D01*
X130625110Y-91856524D01*
X130477901Y-91901175D01*
X130215080Y-92026359D01*
X129981731Y-92200412D01*
X129786822Y-92416645D01*
X129717201Y-92533523D01*
X129682706Y-92468986D01*
X129497134Y-92242866D01*
X129271014Y-92057294D01*
X129013034Y-91919401D01*
X128733111Y-91834487D01*
X128514950Y-91813000D01*
X128369050Y-91813000D01*
X128150889Y-91834487D01*
X127870966Y-91919401D01*
X127612986Y-92057294D01*
X127386866Y-92242866D01*
X127201294Y-92468986D01*
X127172000Y-92523791D01*
X127142706Y-92468986D01*
X126957134Y-92242866D01*
X126731014Y-92057294D01*
X126473034Y-91919401D01*
X126193111Y-91834487D01*
X125974950Y-91813000D01*
X125829050Y-91813000D01*
X125610889Y-91834487D01*
X125330966Y-91919401D01*
X125072986Y-92057294D01*
X124846866Y-92242866D01*
X124661294Y-92468986D01*
X124523401Y-92726966D01*
X124438487Y-93006889D01*
X124409815Y-93298000D01*
X123998829Y-93298000D01*
X123891730Y-93039442D01*
X123538575Y-92510907D01*
X123089093Y-92061425D01*
X122664917Y-91778000D01*
X177399083Y-91778000D01*
X176974907Y-92061425D01*
X176974907Y-92061425D01*
G37*
X176974907Y-92061425D02*
X176525425Y-92510907D01*
X176172270Y-93039442D01*
X175929012Y-93626719D01*
X175805000Y-94250168D01*
X175805000Y-94885832D01*
X175929012Y-95509281D01*
X176172270Y-96096558D01*
X176525425Y-96625093D01*
X176974907Y-97074575D01*
X177503442Y-97427730D01*
X178090719Y-97670988D01*
X178714168Y-97795000D01*
X179349832Y-97795000D01*
X179973281Y-97670988D01*
X180560558Y-97427730D01*
X181089093Y-97074575D01*
X181538575Y-96625093D01*
X181822000Y-96200916D01*
X181822000Y-98441000D01*
X127032000Y-98441000D01*
X127007224Y-98443440D01*
X126983399Y-98450667D01*
X126961443Y-98462403D01*
X126942197Y-98478197D01*
X126926403Y-98497443D01*
X126914667Y-98519399D01*
X126907440Y-98543224D01*
X126905000Y-98568000D01*
X126905000Y-105441000D01*
X123037743Y-105441000D01*
X123414518Y-105328552D01*
X124047466Y-104993879D01*
X124074740Y-104975657D01*
X124410897Y-104506502D01*
X122032000Y-102127605D01*
X119653103Y-104506502D01*
X119989260Y-104975657D01*
X120619177Y-105316000D01*
X121024682Y-105441000D01*
X118242000Y-105441000D01*
X118242000Y-101931599D01*
X118379710Y-101931599D01*
X118446689Y-102644441D01*
X118651448Y-103330518D01*
X118986121Y-103963466D01*
X119004343Y-103990740D01*
X119473498Y-104326897D01*
X121852395Y-101948000D01*
X122211605Y-101948000D01*
X124590502Y-104326897D01*
X125059657Y-103990740D01*
X125400000Y-103360823D01*
X125610913Y-102676612D01*
X125684290Y-101964401D01*
X125617311Y-101251559D01*
X125412552Y-100565482D01*
X125077879Y-99932534D01*
X125059657Y-99905260D01*
X124590502Y-99569103D01*
X122211605Y-101948000D01*
X121852395Y-101948000D01*
X119473498Y-99569103D01*
X119004343Y-99905260D01*
X118664000Y-100535177D01*
X118453087Y-101219388D01*
X118379710Y-101931599D01*
X118242000Y-101931599D01*
X118242000Y-99389498D01*
X119653103Y-99389498D01*
X122032000Y-101768395D01*
X124410897Y-99389498D01*
X124074740Y-98920343D01*
X123444823Y-98580000D01*
X122760612Y-98369087D01*
X122048401Y-98295710D01*
X121335559Y-98362689D01*
X120649482Y-98567448D01*
X120016534Y-98902121D01*
X119989260Y-98920343D01*
X119653103Y-99389498D01*
X118242000Y-99389498D01*
X118242000Y-96200917D01*
X118525425Y-96625093D01*
X118974907Y-97074575D01*
X119503442Y-97427730D01*
X120090719Y-97670988D01*
X120714168Y-97795000D01*
X121349832Y-97795000D01*
X121973281Y-97670988D01*
X122560558Y-97427730D01*
X123089093Y-97074575D01*
X123538575Y-96625093D01*
X123891730Y-96096558D01*
X124134988Y-95509281D01*
X124259000Y-94885832D01*
X124259000Y-94250168D01*
X124134988Y-93626719D01*
X123998829Y-93298000D01*
X124409815Y-93298000D01*
X124438487Y-93589111D01*
X124523401Y-93869034D01*
X124661294Y-94127014D01*
X124846866Y-94353134D01*
X124876687Y-94377607D01*
X124807820Y-94398498D01*
X124697506Y-94457463D01*
X124600815Y-94536815D01*
X124521463Y-94633506D01*
X124462498Y-94743820D01*
X124426188Y-94863518D01*
X124413928Y-94988000D01*
X124413928Y-96688000D01*
X124426188Y-96812482D01*
X124462498Y-96932180D01*
X124521463Y-97042494D01*
X124600815Y-97139185D01*
X124697506Y-97218537D01*
X124807820Y-97277502D01*
X124927518Y-97313812D01*
X125052000Y-97326072D01*
X126752000Y-97326072D01*
X126876482Y-97313812D01*
X126996180Y-97277502D01*
X127106494Y-97218537D01*
X127203185Y-97139185D01*
X127282537Y-97042494D01*
X127341502Y-96932180D01*
X127362393Y-96863313D01*
X127386866Y-96893134D01*
X127612986Y-97078706D01*
X127870966Y-97216599D01*
X128150889Y-97301513D01*
X128369050Y-97323000D01*
X128514950Y-97323000D01*
X128733111Y-97301513D01*
X129013034Y-97216599D01*
X129271014Y-97078706D01*
X129497134Y-96893134D01*
X129682706Y-96667014D01*
X129712000Y-96612209D01*
X129741294Y-96667014D01*
X129926866Y-96893134D01*
X130152986Y-97078706D01*
X130410966Y-97216599D01*
X130690889Y-97301513D01*
X130909050Y-97323000D01*
X131054950Y-97323000D01*
X131273111Y-97301513D01*
X131553034Y-97216599D01*
X131811014Y-97078706D01*
X132037134Y-96893134D01*
X132222706Y-96667014D01*
X132252000Y-96612209D01*
X132281294Y-96667014D01*
X132466866Y-96893134D01*
X132692986Y-97078706D01*
X132950966Y-97216599D01*
X133230889Y-97301513D01*
X133449050Y-97323000D01*
X133594950Y-97323000D01*
X133813111Y-97301513D01*
X134093034Y-97216599D01*
X134351014Y-97078706D01*
X134577134Y-96893134D01*
X134762706Y-96667014D01*
X134797201Y-96602477D01*
X134866822Y-96719355D01*
X135061731Y-96935588D01*
X135295080Y-97109641D01*
X135557901Y-97234825D01*
X135705110Y-97279476D01*
X135935000Y-97158155D01*
X135935000Y-95965000D01*
X135915000Y-95965000D01*
X135915000Y-95711000D01*
X135935000Y-95711000D01*
X135935000Y-95691000D01*
X136189000Y-95691000D01*
X136189000Y-95711000D01*
X136209000Y-95711000D01*
X136209000Y-95965000D01*
X136189000Y-95965000D01*
X136189000Y-97158155D01*
X136418890Y-97279476D01*
X136566099Y-97234825D01*
X136828920Y-97109641D01*
X137062269Y-96935588D01*
X137257178Y-96719355D01*
X137326799Y-96602477D01*
X137361294Y-96667014D01*
X137546866Y-96893134D01*
X137772986Y-97078706D01*
X138030966Y-97216599D01*
X138310889Y-97301513D01*
X138529050Y-97323000D01*
X138674950Y-97323000D01*
X138893111Y-97301513D01*
X139173034Y-97216599D01*
X139431014Y-97078706D01*
X139657134Y-96893134D01*
X139842706Y-96667014D01*
X139872000Y-96612209D01*
X139901294Y-96667014D01*
X140086866Y-96893134D01*
X140312986Y-97078706D01*
X140570966Y-97216599D01*
X140850889Y-97301513D01*
X141069050Y-97323000D01*
X141214950Y-97323000D01*
X141433111Y-97301513D01*
X141713034Y-97216599D01*
X141971014Y-97078706D01*
X142197134Y-96893134D01*
X142382706Y-96667014D01*
X142412000Y-96612209D01*
X142441294Y-96667014D01*
X142626866Y-96893134D01*
X142852986Y-97078706D01*
X143110966Y-97216599D01*
X143390889Y-97301513D01*
X143609050Y-97323000D01*
X143754950Y-97323000D01*
X143973111Y-97301513D01*
X144253034Y-97216599D01*
X144511014Y-97078706D01*
X144737134Y-96893134D01*
X144922706Y-96667014D01*
X144952000Y-96612209D01*
X144981294Y-96667014D01*
X145166866Y-96893134D01*
X145392986Y-97078706D01*
X145650966Y-97216599D01*
X145930889Y-97301513D01*
X146149050Y-97323000D01*
X146294950Y-97323000D01*
X146513111Y-97301513D01*
X146793034Y-97216599D01*
X147051014Y-97078706D01*
X147277134Y-96893134D01*
X147462706Y-96667014D01*
X147492000Y-96612209D01*
X147521294Y-96667014D01*
X147706866Y-96893134D01*
X147932986Y-97078706D01*
X148190966Y-97216599D01*
X148470889Y-97301513D01*
X148689050Y-97323000D01*
X148834950Y-97323000D01*
X149053111Y-97301513D01*
X149333034Y-97216599D01*
X149591014Y-97078706D01*
X149817134Y-96893134D01*
X150002706Y-96667014D01*
X150032000Y-96612209D01*
X150061294Y-96667014D01*
X150246866Y-96893134D01*
X150472986Y-97078706D01*
X150730966Y-97216599D01*
X151010889Y-97301513D01*
X151229050Y-97323000D01*
X151374950Y-97323000D01*
X151593111Y-97301513D01*
X151873034Y-97216599D01*
X152131014Y-97078706D01*
X152357134Y-96893134D01*
X152542706Y-96667014D01*
X152572000Y-96612209D01*
X152601294Y-96667014D01*
X152786866Y-96893134D01*
X153012986Y-97078706D01*
X153270966Y-97216599D01*
X153550889Y-97301513D01*
X153769050Y-97323000D01*
X153914950Y-97323000D01*
X154133111Y-97301513D01*
X154413034Y-97216599D01*
X154671014Y-97078706D01*
X154897134Y-96893134D01*
X155082706Y-96667014D01*
X155117201Y-96602477D01*
X155186822Y-96719355D01*
X155381731Y-96935588D01*
X155615080Y-97109641D01*
X155877901Y-97234825D01*
X156025110Y-97279476D01*
X156255000Y-97158155D01*
X156255000Y-95965000D01*
X156235000Y-95965000D01*
X156235000Y-95711000D01*
X156255000Y-95711000D01*
X156255000Y-95691000D01*
X156509000Y-95691000D01*
X156509000Y-95711000D01*
X156529000Y-95711000D01*
X156529000Y-95965000D01*
X156509000Y-95965000D01*
X156509000Y-97158155D01*
X156738890Y-97279476D01*
X156886099Y-97234825D01*
X157148920Y-97109641D01*
X157382269Y-96935588D01*
X157577178Y-96719355D01*
X157646799Y-96602477D01*
X157681294Y-96667014D01*
X157866866Y-96893134D01*
X158092986Y-97078706D01*
X158350966Y-97216599D01*
X158630889Y-97301513D01*
X158849050Y-97323000D01*
X158994950Y-97323000D01*
X159213111Y-97301513D01*
X159493034Y-97216599D01*
X159751014Y-97078706D01*
X159977134Y-96893134D01*
X160162706Y-96667014D01*
X160192000Y-96612209D01*
X160221294Y-96667014D01*
X160406866Y-96893134D01*
X160632986Y-97078706D01*
X160890966Y-97216599D01*
X161170889Y-97301513D01*
X161389050Y-97323000D01*
X161534950Y-97323000D01*
X161753111Y-97301513D01*
X162033034Y-97216599D01*
X162291014Y-97078706D01*
X162517134Y-96893134D01*
X162702706Y-96667014D01*
X162732000Y-96612209D01*
X162761294Y-96667014D01*
X162946866Y-96893134D01*
X163172986Y-97078706D01*
X163430966Y-97216599D01*
X163710889Y-97301513D01*
X163929050Y-97323000D01*
X164074950Y-97323000D01*
X164293111Y-97301513D01*
X164573034Y-97216599D01*
X164831014Y-97078706D01*
X165057134Y-96893134D01*
X165242706Y-96667014D01*
X165272000Y-96612209D01*
X165301294Y-96667014D01*
X165486866Y-96893134D01*
X165712986Y-97078706D01*
X165970966Y-97216599D01*
X166250889Y-97301513D01*
X166469050Y-97323000D01*
X166614950Y-97323000D01*
X166833111Y-97301513D01*
X167113034Y-97216599D01*
X167371014Y-97078706D01*
X167597134Y-96893134D01*
X167782706Y-96667014D01*
X167812000Y-96612209D01*
X167841294Y-96667014D01*
X168026866Y-96893134D01*
X168252986Y-97078706D01*
X168510966Y-97216599D01*
X168790889Y-97301513D01*
X169009050Y-97323000D01*
X169154950Y-97323000D01*
X169373111Y-97301513D01*
X169653034Y-97216599D01*
X169911014Y-97078706D01*
X170137134Y-96893134D01*
X170322706Y-96667014D01*
X170352000Y-96612209D01*
X170381294Y-96667014D01*
X170566866Y-96893134D01*
X170792986Y-97078706D01*
X171050966Y-97216599D01*
X171330889Y-97301513D01*
X171549050Y-97323000D01*
X171694950Y-97323000D01*
X171913111Y-97301513D01*
X172193034Y-97216599D01*
X172451014Y-97078706D01*
X172677134Y-96893134D01*
X172862706Y-96667014D01*
X172897201Y-96602477D01*
X172966822Y-96719355D01*
X173161731Y-96935588D01*
X173395080Y-97109641D01*
X173657901Y-97234825D01*
X173805110Y-97279476D01*
X174035000Y-97158155D01*
X174035000Y-95965000D01*
X174289000Y-95965000D01*
X174289000Y-97158155D01*
X174518890Y-97279476D01*
X174666099Y-97234825D01*
X174928920Y-97109641D01*
X175162269Y-96935588D01*
X175357178Y-96719355D01*
X175506157Y-96469252D01*
X175603481Y-96194891D01*
X175482814Y-95965000D01*
X174289000Y-95965000D01*
X174035000Y-95965000D01*
X174015000Y-95965000D01*
X174015000Y-95711000D01*
X174035000Y-95711000D01*
X174035000Y-95691000D01*
X174289000Y-95691000D01*
X174289000Y-95711000D01*
X175482814Y-95711000D01*
X175603481Y-95481109D01*
X175506157Y-95206748D01*
X175357178Y-94956645D01*
X175162269Y-94740412D01*
X174933244Y-94569584D01*
X174991014Y-94538706D01*
X175217134Y-94353134D01*
X175402706Y-94127014D01*
X175540599Y-93869034D01*
X175625513Y-93589111D01*
X175654185Y-93298000D01*
X175625513Y-93006889D01*
X175540599Y-92726966D01*
X175402706Y-92468986D01*
X175217134Y-92242866D01*
X174991014Y-92057294D01*
X174733034Y-91919401D01*
X174453111Y-91834487D01*
X174234950Y-91813000D01*
X174089050Y-91813000D01*
X173870889Y-91834487D01*
X173590966Y-91919401D01*
X173332986Y-92057294D01*
X173106866Y-92242866D01*
X172921294Y-92468986D01*
X172892000Y-92523791D01*
X172862706Y-92468986D01*
X172677134Y-92242866D01*
X172451014Y-92057294D01*
X172193034Y-91919401D01*
X171913111Y-91834487D01*
X171694950Y-91813000D01*
X171549050Y-91813000D01*
X171330889Y-91834487D01*
X171050966Y-91919401D01*
X170792986Y-92057294D01*
X170566866Y-92242866D01*
X170381294Y-92468986D01*
X170352000Y-92523791D01*
X170322706Y-92468986D01*
X170137134Y-92242866D01*
X169911014Y-92057294D01*
X169653034Y-91919401D01*
X169373111Y-91834487D01*
X169154950Y-91813000D01*
X169009050Y-91813000D01*
X168790889Y-91834487D01*
X168510966Y-91919401D01*
X168252986Y-92057294D01*
X168026866Y-92242866D01*
X167841294Y-92468986D01*
X167806799Y-92533523D01*
X167737178Y-92416645D01*
X167542269Y-92200412D01*
X167308920Y-92026359D01*
X167046099Y-91901175D01*
X166898890Y-91856524D01*
X166669000Y-91977845D01*
X166669000Y-93171000D01*
X166689000Y-93171000D01*
X166689000Y-93425000D01*
X166669000Y-93425000D01*
X166669000Y-93445000D01*
X166415000Y-93445000D01*
X166415000Y-93425000D01*
X166395000Y-93425000D01*
X166395000Y-93171000D01*
X166415000Y-93171000D01*
X166415000Y-91977845D01*
X166185110Y-91856524D01*
X166037901Y-91901175D01*
X165775080Y-92026359D01*
X165541731Y-92200412D01*
X165346822Y-92416645D01*
X165277201Y-92533523D01*
X165242706Y-92468986D01*
X165057134Y-92242866D01*
X164831014Y-92057294D01*
X164573034Y-91919401D01*
X164293111Y-91834487D01*
X164074950Y-91813000D01*
X163929050Y-91813000D01*
X163710889Y-91834487D01*
X163430966Y-91919401D01*
X163172986Y-92057294D01*
X162946866Y-92242866D01*
X162761294Y-92468986D01*
X162726799Y-92533523D01*
X162657178Y-92416645D01*
X162462269Y-92200412D01*
X162228920Y-92026359D01*
X161966099Y-91901175D01*
X161818890Y-91856524D01*
X161589000Y-91977845D01*
X161589000Y-93171000D01*
X161609000Y-93171000D01*
X161609000Y-93425000D01*
X161589000Y-93425000D01*
X161589000Y-93445000D01*
X161335000Y-93445000D01*
X161335000Y-93425000D01*
X161315000Y-93425000D01*
X161315000Y-93171000D01*
X161335000Y-93171000D01*
X161335000Y-91977845D01*
X161105110Y-91856524D01*
X160957901Y-91901175D01*
X160695080Y-92026359D01*
X160461731Y-92200412D01*
X160266822Y-92416645D01*
X160197201Y-92533523D01*
X160162706Y-92468986D01*
X159977134Y-92242866D01*
X159751014Y-92057294D01*
X159493034Y-91919401D01*
X159213111Y-91834487D01*
X158994950Y-91813000D01*
X158849050Y-91813000D01*
X158630889Y-91834487D01*
X158350966Y-91919401D01*
X158092986Y-92057294D01*
X157866866Y-92242866D01*
X157681294Y-92468986D01*
X157652000Y-92523791D01*
X157622706Y-92468986D01*
X157437134Y-92242866D01*
X157211014Y-92057294D01*
X156953034Y-91919401D01*
X156673111Y-91834487D01*
X156454950Y-91813000D01*
X156309050Y-91813000D01*
X156090889Y-91834487D01*
X155810966Y-91919401D01*
X155552986Y-92057294D01*
X155326866Y-92242866D01*
X155141294Y-92468986D01*
X155112000Y-92523791D01*
X155082706Y-92468986D01*
X154897134Y-92242866D01*
X154671014Y-92057294D01*
X154413034Y-91919401D01*
X154133111Y-91834487D01*
X153914950Y-91813000D01*
X153769050Y-91813000D01*
X153550889Y-91834487D01*
X153270966Y-91919401D01*
X153012986Y-92057294D01*
X152786866Y-92242866D01*
X152601294Y-92468986D01*
X152572000Y-92523791D01*
X152542706Y-92468986D01*
X152357134Y-92242866D01*
X152131014Y-92057294D01*
X151873034Y-91919401D01*
X151593111Y-91834487D01*
X151374950Y-91813000D01*
X151229050Y-91813000D01*
X151010889Y-91834487D01*
X150730966Y-91919401D01*
X150472986Y-92057294D01*
X150246866Y-92242866D01*
X150061294Y-92468986D01*
X150026799Y-92533523D01*
X149957178Y-92416645D01*
X149762269Y-92200412D01*
X149528920Y-92026359D01*
X149266099Y-91901175D01*
X149118890Y-91856524D01*
X148889000Y-91977845D01*
X148889000Y-93171000D01*
X148909000Y-93171000D01*
X148909000Y-93425000D01*
X148889000Y-93425000D01*
X148889000Y-93445000D01*
X148635000Y-93445000D01*
X148635000Y-93425000D01*
X148615000Y-93425000D01*
X148615000Y-93171000D01*
X148635000Y-93171000D01*
X148635000Y-91977845D01*
X148405110Y-91856524D01*
X148257901Y-91901175D01*
X147995080Y-92026359D01*
X147761731Y-92200412D01*
X147566822Y-92416645D01*
X147497201Y-92533523D01*
X147462706Y-92468986D01*
X147277134Y-92242866D01*
X147051014Y-92057294D01*
X146793034Y-91919401D01*
X146513111Y-91834487D01*
X146294950Y-91813000D01*
X146149050Y-91813000D01*
X145930889Y-91834487D01*
X145650966Y-91919401D01*
X145392986Y-92057294D01*
X145166866Y-92242866D01*
X144981294Y-92468986D01*
X144952000Y-92523791D01*
X144922706Y-92468986D01*
X144737134Y-92242866D01*
X144511014Y-92057294D01*
X144253034Y-91919401D01*
X143973111Y-91834487D01*
X143754950Y-91813000D01*
X143609050Y-91813000D01*
X143390889Y-91834487D01*
X143110966Y-91919401D01*
X142852986Y-92057294D01*
X142626866Y-92242866D01*
X142441294Y-92468986D01*
X142406799Y-92533523D01*
X142337178Y-92416645D01*
X142142269Y-92200412D01*
X141908920Y-92026359D01*
X141646099Y-91901175D01*
X141498890Y-91856524D01*
X141269000Y-91977845D01*
X141269000Y-93171000D01*
X141289000Y-93171000D01*
X141289000Y-93425000D01*
X141269000Y-93425000D01*
X141269000Y-93445000D01*
X141015000Y-93445000D01*
X141015000Y-93425000D01*
X140995000Y-93425000D01*
X140995000Y-93171000D01*
X141015000Y-93171000D01*
X141015000Y-91977845D01*
X140785110Y-91856524D01*
X140637901Y-91901175D01*
X140375080Y-92026359D01*
X140141731Y-92200412D01*
X139946822Y-92416645D01*
X139877201Y-92533523D01*
X139842706Y-92468986D01*
X139657134Y-92242866D01*
X139431014Y-92057294D01*
X139173034Y-91919401D01*
X138893111Y-91834487D01*
X138674950Y-91813000D01*
X138529050Y-91813000D01*
X138310889Y-91834487D01*
X138030966Y-91919401D01*
X137772986Y-92057294D01*
X137546866Y-92242866D01*
X137361294Y-92468986D01*
X137332000Y-92523791D01*
X137302706Y-92468986D01*
X137117134Y-92242866D01*
X136891014Y-92057294D01*
X136633034Y-91919401D01*
X136353111Y-91834487D01*
X136134950Y-91813000D01*
X135989050Y-91813000D01*
X135770889Y-91834487D01*
X135490966Y-91919401D01*
X135232986Y-92057294D01*
X135006866Y-92242866D01*
X134821294Y-92468986D01*
X134792000Y-92523791D01*
X134762706Y-92468986D01*
X134577134Y-92242866D01*
X134351014Y-92057294D01*
X134093034Y-91919401D01*
X133813111Y-91834487D01*
X133594950Y-91813000D01*
X133449050Y-91813000D01*
X133230889Y-91834487D01*
X132950966Y-91919401D01*
X132692986Y-92057294D01*
X132466866Y-92242866D01*
X132281294Y-92468986D01*
X132246799Y-92533523D01*
X132177178Y-92416645D01*
X131982269Y-92200412D01*
X131748920Y-92026359D01*
X131486099Y-91901175D01*
X131338890Y-91856524D01*
X131109000Y-91977845D01*
X131109000Y-93171000D01*
X131129000Y-93171000D01*
X131129000Y-93425000D01*
X131109000Y-93425000D01*
X131109000Y-93445000D01*
X130855000Y-93445000D01*
X130855000Y-93425000D01*
X130835000Y-93425000D01*
X130835000Y-93171000D01*
X130855000Y-93171000D01*
X130855000Y-91977845D01*
X130625110Y-91856524D01*
X130477901Y-91901175D01*
X130215080Y-92026359D01*
X129981731Y-92200412D01*
X129786822Y-92416645D01*
X129717201Y-92533523D01*
X129682706Y-92468986D01*
X129497134Y-92242866D01*
X129271014Y-92057294D01*
X129013034Y-91919401D01*
X128733111Y-91834487D01*
X128514950Y-91813000D01*
X128369050Y-91813000D01*
X128150889Y-91834487D01*
X127870966Y-91919401D01*
X127612986Y-92057294D01*
X127386866Y-92242866D01*
X127201294Y-92468986D01*
X127172000Y-92523791D01*
X127142706Y-92468986D01*
X126957134Y-92242866D01*
X126731014Y-92057294D01*
X126473034Y-91919401D01*
X126193111Y-91834487D01*
X125974950Y-91813000D01*
X125829050Y-91813000D01*
X125610889Y-91834487D01*
X125330966Y-91919401D01*
X125072986Y-92057294D01*
X124846866Y-92242866D01*
X124661294Y-92468986D01*
X124523401Y-92726966D01*
X124438487Y-93006889D01*
X124409815Y-93298000D01*
X123998829Y-93298000D01*
X123891730Y-93039442D01*
X123538575Y-92510907D01*
X123089093Y-92061425D01*
X122664917Y-91778000D01*
X177399083Y-91778000D01*
X176974907Y-92061425D01*
M02*
