solid OpenSCAD_Model
  facet normal -0 0 1
    outer loop
      vertex 0 153 16.5
      vertex 153 0 16.5
      vertex 153 153 16.5
    endloop
  endfacet
  facet normal 0 0 1
    outer loop
      vertex 153 0 16.5
      vertex 0 153 16.5
      vertex 0 0 16.5
    endloop
  endfacet
  facet normal 0 0 -1
    outer loop
      vertex 0 0 0
      vertex 153 153 0
      vertex 153 0 0
    endloop
  endfacet
  facet normal -0 0 -1
    outer loop
      vertex 153 153 0
      vertex 0 0 0
      vertex 0 153 0
    endloop
  endfacet
  facet normal 0 -1 0
    outer loop
      vertex 0 0 0
      vertex 153 0 16.5
      vertex 0 0 16.5
    endloop
  endfacet
  facet normal 0 -1 -0
    outer loop
      vertex 153 0 16.5
      vertex 0 0 0
      vertex 153 0 0
    endloop
  endfacet
  facet normal 1 -0 0
    outer loop
      vertex 153 0 16.5
      vertex 153 153 0
      vertex 153 153 16.5
    endloop
  endfacet
  facet normal 1 0 0
    outer loop
      vertex 153 153 0
      vertex 153 0 16.5
      vertex 153 0 0
    endloop
  endfacet
  facet normal 0 1 -0
    outer loop
      vertex 153 153 0
      vertex 0 153 16.5
      vertex 153 153 16.5
    endloop
  endfacet
  facet normal 0 1 0
    outer loop
      vertex 0 153 16.5
      vertex 153 153 0
      vertex 0 153 0
    endloop
  endfacet
  facet normal -1 0 0
    outer loop
      vertex 0 0 0
      vertex 0 153 16.5
      vertex 0 153 0
    endloop
  endfacet
  facet normal -1 -0 0
    outer loop
      vertex 0 153 16.5
      vertex 0 0 0
      vertex 0 0 16.5
    endloop
  endfacet
endsolid OpenSCAD_Model
